<?xml version="1.0" encoding="utf-8"?>
<!-- Generator: Adobe Illustrator 18.0.0, SVG Export Plug-In . SVG Version: 6.00 Build 0)  -->
<!DOCTYPE svg PUBLIC "-//W3C//DTD SVG 1.1//EN" "http://www.w3.org/Graphics/SVG/1.1/DTD/svg11.dtd">
<svg version="1.1" id="Layer_1" xmlns="http://www.w3.org/2000/svg" xmlns:xlink="http://www.w3.org/1999/xlink" x="0px" y="0px"
	 viewBox="0 0 300 300" enable-background="new 0 0 300 300" xml:space="preserve">
<g>
	<path fill-rule="evenodd" clip-rule="evenodd" fill="#13A800" d="M150.5,1C233,1,299.9,67.9,299.9,150.4S233,299.8,150.5,299.8
		S1.1,232.9,1.1,150.4S68,1,150.5,1L150.5,1z"/>
	<path fill-rule="evenodd" clip-rule="evenodd" fill="#031401" d="M144.9,272.8c-54.6-4.5-52.6-110.3-49-156.8
		c3.4-44,22.4-86.6,49.5-82.3c40.2-12.4,62.9,33.1,65.9,80.7C214.2,161.4,228.2,277.6,144.9,272.8L144.9,272.8L144.9,272.8z"/>
	<path fill-rule="evenodd" clip-rule="evenodd" fill="#FFFFFF" d="M128.8,125.9c0,0,5,34.8-0.8,44.6c-9.6,12.2-25.5,15.7-48.3,26.8
		c49.1,114.5,113.7,88.6,148.6,1.4c-35.2-20-37-18.7-45.8-28.1c-4.8-5.2-6.6-18.4-7.4-46.7L128.8,125.9L128.8,125.9L128.8,125.9z"/>
	<path fill-rule="evenodd" clip-rule="evenodd" fill="#DBDBDB" d="M129.4,130.5l46.1,6.5c1,19.5,2.9,29.3,6.9,33.6
		c0.1,0.1,0.2,0.2,0.3,0.4c-31.8,10-47.4-11.1-52.3-28.6C130.1,137.7,129.7,133.5,129.4,130.5L129.4,130.5L129.4,130.5z"/>
	<path fill-rule="evenodd" clip-rule="evenodd" fill="#FFFFFF" d="M114.8,92.1c-3.5,0-5.6,7.8-3.6,15.4c2,7.6,3,14.4,6.5,14.4
		c3.5,0,1.9-4.9,2-13.8C119.7,99.3,118.3,92.1,114.8,92.1L114.8,92.1L114.8,92.1L114.8,92.1z"/>
	<path fill-rule="evenodd" clip-rule="evenodd" fill="#FFFFFF" d="M193.6,92.2c3.5,0,5.5,7.9,3.5,15.4c-2,7.6-3.1,14.4-6.6,14.4
		c-3.5,0-1.9-4.9-1.9-13.8C188.6,99.4,190.1,92.2,193.6,92.2L193.6,92.2L193.6,92.2z"/>
	<path fill-rule="evenodd" clip-rule="evenodd" fill="#FFFFFF" d="M154,46.3c39.8,0,36.3,23.6,36.2,56
		c-0.1,32.4-22.2,53.9-36.9,52.6c-13.3-0.5-35.5-19.2-35.4-51.6c0.1-24.7-2.8-44.9,14.4-53.1C137.6,47.7,144.6,46.3,154,46.3
		L154,46.3L154,46.3z"/>
	<path fill-rule="evenodd" clip-rule="evenodd" fill="#031401" d="M117.7,96.2c4.9-19.4,9-24.6,22.6-40c26.2,8.7,46,15.2,50.3,43.4
		c5.3-3.9,3.6-13.5,3.3-18c-0.7-21.4-20.4-44.6-40.2-42.1c-28.2,5.6-33.3,14-42.1,48L117.7,96.2L117.7,96.2L117.7,96.2z"/>
	<path fill-rule="evenodd" clip-rule="evenodd" fill="#031401" d="M258.2,253.9l-6.5-34.9c-1.8-9.3-12.2-19.2-21.9-23.1
		c-12.9-6.3-22.2-8.4-34-15.3c-14.3,59.1-78.7,41.7-81.2,0.3c-17,6.2-19.5,8.1-37,14.9c0,0-18.8,6.1-23.6,24.9l-8.7,35.6
		c27,26.8,64.2,43.4,105.3,43.4C192.8,299.8,231,282.2,258.2,253.9L258.2,253.9z"/>
</g>
</svg>
