<svg width="347" height="49" viewBox="0 0 347 49" fill="none" xmlns="http://www.w3.org/2000/svg">
<path d="M258.73 33.2998C259.585 31.4884 259.666 31.1797 259.743 29.4974C259.856 26.9983 259.359 25.4753 257.744 23.372L257.169 22.6222L258.813 21.8205C260.486 21.0053 261.029 20.9517 261.504 21.5605C261.511 21.5706 261.519 21.5773 261.526 21.5857C261.443 22.005 261.365 22.4176 261.293 22.8202C260.681 26.2619 260.491 30.0342 260.874 31.1764C261.085 31.8054 261.335 31.2653 261.752 29.2744C262.53 25.5625 265.042 16.2318 266.148 12.9426C266.898 10.7118 266.926 10.5441 266.632 10.0895C266.252 9.50417 265.348 9.44211 264.875 9.96878C264.238 10.6783 262.796 15.5944 261.805 20.2204C261.253 19.853 260.032 20.0291 257.972 20.737L255.866 21.4616L254.336 20.5575C253.495 20.061 252.011 19.3985 251.038 19.0848C250.065 18.7712 249.269 18.4709 249.267 18.4156C249.265 18.3602 249.643 18.0986 250.105 17.8336C252.332 16.5588 256.774 13.429 258.151 12.166C259.665 10.7772 260.177 10.0375 260.174 9.2509C260.17 8.39549 260.047 8.15563 259.445 7.83695C258.198 7.17442 253.977 8.0919 250.208 9.84299C249.467 10.1885 248.808 10.4183 248.745 10.3562C248.683 10.2942 249.049 9.27606 249.558 8.09525C250.711 5.42669 250.825 4.82622 250.278 4.32807C249.495 3.61187 248.978 4.00603 248.008 6.05735C247.527 7.07546 247.072 8.13215 246.995 8.40723C246.919 8.6823 246.546 9.62829 246.169 10.5089C245.592 11.8507 245.357 12.1778 244.72 12.5283C244.037 12.904 243.938 12.9141 243.754 12.629C243.568 12.3388 243.501 12.3388 243.017 12.6256C242.724 12.7984 241.866 13.5565 241.11 14.3113C240.1 15.316 239.732 15.8208 239.732 16.2083C239.732 17.4512 240.687 17.5216 242.535 16.4146C243.27 15.9735 243.909 15.6145 243.957 15.6145C244.003 15.6145 243.581 16.8524 243.017 18.367C241.334 22.8839 239.771 28.7007 240.17 28.949C240.458 29.1284 240.614 28.8735 241.171 27.3237C241.765 25.6715 246.831 14.2425 247.153 13.8265C247.423 13.481 251.991 11.2704 253.925 10.5508C255.574 9.93859 257.353 9.40857 257.767 9.40857C258.675 9.40857 255.324 11.8658 249.713 15.3126C245.65 17.8084 245.119 18.2915 245.364 19.276C245.532 19.9486 246.19 20.2891 248.085 20.6816C249.696 21.0154 252.044 21.844 252.805 22.3455C253.264 22.6491 253.234 22.6742 250.919 23.9523C246.579 26.3492 243.057 28.9087 239.214 32.4562C235.58 35.8091 233.373 38.5665 231.976 41.5018C230.234 45.1633 230.828 47.6289 233.722 48.7443C234.896 49.1972 237.85 49.0143 240.032 48.3552C244.828 46.906 250.386 43.4625 254.301 39.5125C256.463 37.3337 257.541 35.8225 258.73 33.2998ZM240.231 45.8476C238.788 46.3659 238.064 46.5034 236.461 46.5638C234.264 46.6477 233.734 46.49 233.389 45.6514C232.44 43.3384 236.78 37.3404 243.506 31.6729C245.856 29.692 251.386 25.8326 253.882 24.4287L255.03 23.7846L255.72 24.5444C257.2 26.173 257.839 28.7208 257.263 30.6967C255.657 36.2133 247.935 43.0818 240.231 45.8476Z" fill="#F7FF00"/>
<path d="M287.974 12.0985C288.34 12.4809 288.37 12.4776 290.386 11.8268C293.486 10.8255 293.484 10.8271 293.067 10.5185C292.757 10.2904 292.882 10.1982 294.161 9.7151C298.424 8.10155 306.95 5.4766 307.18 5.70638C307.241 5.76677 307.085 6.37898 306.834 7.06331C306.583 7.74932 305.836 9.87276 305.174 11.7815C304.512 13.6919 303.874 15.282 303.757 15.3156C297.913 17.0029 296.774 17.4642 296.107 18.4085C295.714 18.9653 295.691 19.0895 295.936 19.3377C296.18 19.5843 296.418 19.5708 297.698 19.2337C298.512 19.019 300.07 18.4873 301.163 18.0529C302.254 17.6185 303.177 17.288 303.212 17.3216C303.247 17.3535 302.783 18.9083 302.181 20.7751C300.133 27.1237 298.66 33.187 298.974 33.967C299.157 34.4215 298.813 35.3206 302.171 25.6242C303.676 21.275 305.023 17.4323 305.164 17.0851C305.365 16.5886 305.625 16.3857 306.368 16.1441C307.923 15.6376 309.207 15.3407 310.248 15.2485C309.312 16.8268 309.161 18.3011 309.886 19.17L310.371 19.7503L309.919 20.7366C308.984 22.7728 308.56 24.3075 308.534 25.7533C308.514 26.9023 308.582 27.2662 308.886 27.605C309.352 28.1233 309.492 28.1267 310.272 27.6403C310.872 27.2662 311.622 26.4477 314.032 23.5427C315.184 22.1539 315.188 22.1505 315.051 22.8835C314.902 23.6869 315.071 24.6899 315.339 24.5876C315.64 24.4719 318.926 17.8667 318.926 17.3753C318.926 16.3806 317.914 16.0854 317.188 16.867C316.806 17.2797 315.554 20.1243 315.554 20.5822C315.554 20.7969 311.61 25.3759 310.621 26.3102C309.44 27.4256 309.596 26.5702 311.238 22.9556C312.382 20.4363 312.562 19.5306 312.104 18.6064C311.647 17.6822 311.695 17.3417 312.48 15.9244C313.298 14.4484 313.22 13.7423 312.211 13.6349C311.938 13.4873 311.531 13.4722 311.037 13.6148C310.242 13.8446 306.026 14.7788 306.026 14.7268C306.026 14.2958 309.731 5.60239 310.057 5.26861C310.797 4.51048 319.874 3.94523 324.3 4.38301C326.879 4.63795 328.616 5.08243 328.787 5.53195C328.932 5.91269 328.03 6.88552 326.914 7.54805C326.179 7.98414 325.822 8.41185 326.191 8.41185C326.46 8.41185 329.038 6.95429 329.314 6.64399C330.194 5.65942 329.698 4.47526 328.12 3.7926C326 2.87512 324.361 2.7074 317.609 2.7074H311.233L311.407 2.24446C311.976 0.736584 311.063 -0.395584 309.704 0.131084C309.526 0.199852 308.983 0.954631 308.494 1.80837L307.606 3.36154L305.773 3.78757C304.765 4.02239 303.79 4.21192 303.607 4.21192C302.924 4.20857 295.26 6.73624 291.339 8.25754C287.888 9.59601 287.264 10.0539 287.477 11.0888C287.545 11.4293 287.77 11.8855 287.974 12.0985Z" fill="#F7FF00"/>
<path d="M320.4 14.5037C321.03 13.5342 320.541 12.6587 319.575 13.0277C318.976 13.2558 318.806 14.0475 319.219 14.6831C319.591 15.2568 319.946 15.2031 320.4 14.5037Z" fill="#F7FF00"/>
<path d="M326.542 16.3202C326.242 16.7798 326.232 16.7815 325.86 16.4058C324.824 15.3608 323.28 15.75 321.592 17.4843C319.444 19.6916 318.472 22.5648 319.519 23.6215C320.605 24.7167 322.254 23.5862 325.068 19.8191C325.971 18.6097 326.159 18.4252 325.983 18.9184C325.285 20.8724 323.605 28.9318 323.821 29.2857C324.017 29.6043 324.22 29.1565 325.072 26.5248C327.674 18.4856 332.138 7.03981 333.206 5.67282C333.675 5.07235 333.738 3.96367 333.324 3.61647C332.827 3.2005 331.972 3.45209 331.506 4.14984C330.846 5.14112 329.424 8.54769 328.072 12.382C327.397 14.2907 326.71 16.0636 326.542 16.3202ZM323.021 20.7298C320.751 22.9891 320.265 23.0361 321.709 20.8573C323.014 18.8848 324.355 17.9338 324.634 18.7791C324.681 18.9234 323.954 19.8006 323.021 20.7298Z" fill="#F7FF00"/>
<path d="M346.796 11.8708C346.626 11.3861 346.496 11.3123 345.814 11.3123C345.088 11.3123 344.981 11.3877 344.401 12.3136C341.635 16.7198 340.496 18.1908 338.808 19.5276C338.187 20.019 337.622 20.4199 337.55 20.4199C337.311 20.4199 337.615 19.5377 338.497 17.6776C339.48 15.6011 339.538 15.2321 338.966 14.7104C338.349 14.1469 337.609 14.5142 336.878 15.7453C336.32 16.6863 335.54 18.8181 335.312 20.0258C335.207 20.5826 333.906 22.2213 333.571 22.2213C333.193 22.2213 333.521 19.1888 334.001 18.2378C334.371 17.5098 334.399 17.2935 334.204 16.7014C333.614 14.9 331.545 15.3159 329.579 17.6323C328.767 18.5883 328.383 19.6081 328.486 20.5239C328.541 21.0053 328.659 21.1328 329.098 21.1848C329.521 21.2334 329.975 20.9751 331.111 20.0392L332.578 18.8299L332.475 20.4904C332.353 22.4629 332.559 23.0231 333.408 23.0231C333.835 23.0231 334.161 22.8101 334.693 22.1827C335.393 21.3575 335.412 21.3491 335.696 21.7601C336.11 22.3572 336.878 22.493 337.675 22.114C338.044 21.9379 339.084 20.9214 339.985 19.8564C340.887 18.7913 341.736 17.795 341.873 17.6407C342.009 17.4863 341.585 19.0177 340.928 21.0439C339.32 26.0086 337.923 31.0304 337.308 34.0462C336.742 36.8221 336.341 39.9955 336.518 40.2857C336.727 40.6279 336.917 40.1666 337.479 37.9375C338.156 35.2538 340.591 27.3052 341.853 23.6487C343.423 19.1049 344.999 15.5994 346.649 12.9761C346.914 12.5501 346.945 12.3035 346.796 11.8708ZM331.899 18.5162C331.613 18.7057 331.438 18.7611 331.513 18.6403C331.655 18.4089 332.42 17.9426 332.42 18.0885C332.42 18.1338 332.185 18.3267 331.899 18.5162Z" fill="#F7FF00"/>
<path d="M329.735 33.4064C327.934 33.0626 311.183 33.8458 303.375 34.6409C299.789 35.0065 290.306 36.2997 289.55 36.5278C289.387 36.5765 287.218 36.9807 284.732 37.4235C273.081 39.5033 265.441 41.5245 258.556 44.3473C254.614 45.9642 251.642 47.6818 251.642 48.341C251.642 48.7821 251.913 48.7116 252.953 48.0038C255.261 46.4339 261.781 43.9146 267.861 42.244C277.89 39.4899 285.961 38.0475 296.397 37.1467C303.279 36.553 305.376 36.4356 311.479 36.2997C317.181 36.1739 317.611 36.1873 317.362 36.4943C317.214 36.6754 317.142 36.9589 317.205 37.1233C317.304 37.3832 318.168 37.4134 323.657 37.3514C330.555 37.2742 330.469 37.2893 331.254 36.0884C332.047 34.8824 331.39 33.7217 329.735 33.4064Z" fill="#F7FF00"/>
<path d="M264.789 23.4C264.719 24.3762 264.766 24.9112 264.937 25.1192C265.504 25.8086 266.126 25.3557 267.919 22.9471C268.4 22.3014 268.812 21.8502 268.834 21.9458C268.857 22.0414 268.93 22.4523 268.997 22.8582C269.133 23.6851 269.63 23.9803 270.289 23.6248C270.676 23.4168 270.693 23.4621 270.698 24.6647C270.705 26.4174 270.981 27.4473 271.588 27.974C272.918 29.1313 274.164 28.0109 277.073 23.0377C277.818 21.763 278.43 20.7633 278.432 20.8187C278.433 20.874 278.255 21.55 278.036 22.3198C276.885 26.3554 276.002 30.9193 275.734 34.2051C275.536 36.6405 275.973 36.2782 276.682 33.4184C277.966 28.2373 279.29 23.821 279.559 23.821C279.616 23.821 279.89 24.0005 280.168 24.2219C280.537 24.5154 280.971 24.6228 281.788 24.6211C283.74 24.6177 293.822 23.3832 294.088 23.1149C294.409 22.7912 293.225 22.7241 287.747 22.7526C284.372 22.771 281.611 22.7408 281.611 22.6855C281.611 22.6301 282.328 21.8049 283.205 20.8522C284.73 19.1934 285.031 18.5879 284.389 18.4654C284.226 18.4352 283.289 18.9435 282.307 19.5942C281.324 20.2467 280.489 20.7482 280.451 20.7113C280.361 20.6241 280.678 19.616 281.616 17.0146C282.672 14.0844 283.657 11.8183 284.801 9.68484C285.849 7.72912 285.97 7.15046 285.452 6.57347C285.007 6.07867 284.349 6.11222 283.842 6.65901C283.135 7.41714 281.503 11.1239 280.253 14.814C279.06 18.3312 277.796 20.7985 275.696 23.7187C274.849 24.8945 273.091 26.8234 272.865 26.8234C272.21 26.8234 272.775 23.244 273.765 21.1239C274.636 19.2554 274.961 18.8411 275.288 19.1682C275.426 19.3058 275.734 19.4181 275.972 19.4181C277.281 19.4181 277.229 16.929 275.91 16.4644C275.004 16.1457 274.35 16.3822 273.469 17.3467C272.607 18.2876 271.378 20.6576 271.17 21.773C271.037 22.4842 270.216 23.2189 269.908 22.9002C269.808 22.7962 269.812 22.3014 269.918 21.7395C270.118 20.6727 269.93 19.6244 269.402 18.868C268.977 18.2574 267.814 18.2608 266.908 18.8764C265.877 19.5724 264.914 21.6305 264.789 23.4ZM266.943 22.4205C267.475 21.2933 268.315 20.4027 268.313 20.9696C268.313 21.0518 267.951 21.5248 267.51 22.0213C266.986 22.6083 266.79 22.7475 266.943 22.4205Z" fill="#F7FF00"/>
<path fill-rule="evenodd" clip-rule="evenodd" d="M52.0317 23.44C52.0317 17.68 56.8495 13 62.7512 13C68.653 13 73.4707 17.68 73.4707 23.44C73.4707 29.2 68.653 33.88 62.7512 33.88C56.729 33.88 52.0317 29.2 52.0317 23.44ZM55.4041 23.44C55.4041 27.52 58.7766 30.64 62.7512 30.64C66.7259 30.64 70.0983 27.52 70.0983 23.44C70.0983 19.36 66.7259 16.36 62.7512 16.36C58.7766 16.36 55.4041 19.36 55.4041 23.44ZM86.599 16.6H80.3359V13H96.4754V16.6H90.0919V34H86.599V16.6ZM38.6625 21.64H28.9066V13.36H25.4137V33.52H28.9066V25.24H38.6625V33.52H42.1554V13.36H38.6625V21.64ZM3.49287 13.36H7.22662C9.75594 13.36 15.7781 13.72 15.6577 21.16C15.6577 22.72 15.2964 27.76 7.58796 27.76H3.49287V33.4H0V13.36H3.49287ZM3.49287 16.72V24.4H8.06973C11.0808 24.4 12.4057 22.96 12.4057 20.92C12.4057 19.24 11.8035 16.72 8.06973 16.72H3.49287ZM106.111 17.0801C101.534 17.0801 97.9208 20.6801 97.9208 25.0001C97.9208 29.3201 101.534 32.9201 106.111 32.9201C110.688 32.9201 114.301 29.3201 114.301 25.0001C114.301 20.6801 110.567 17.0801 106.111 17.0801ZM106.111 29.8001C103.461 29.8001 101.173 27.7601 101.173 25.0001C101.173 22.0001 103.702 20.2001 106.111 20.2001C108.64 20.2001 111.049 22.1201 111.049 25.0001C111.049 27.5201 109.122 29.8001 106.111 29.8001ZM182.231 30.64C183.918 30.64 185.483 30.04 186.808 29.08V23.92H190.181V30.4C188.254 32.56 185.363 33.88 182.231 33.88C176.209 33.88 171.512 29.2 171.512 23.44C171.512 17.68 176.33 13 182.231 13C185.002 13 187.411 13.96 189.338 15.64L187.411 18.52C186.086 17.2 184.279 16.36 182.231 16.36C178.257 16.36 174.884 19.36 174.884 23.44C174.884 27.52 178.257 30.64 182.231 30.64ZM209.933 13C204.032 13 199.214 17.68 199.214 23.44C199.214 29.2 203.911 33.88 209.933 33.88C215.835 33.88 220.653 29.2 220.653 23.44C220.653 17.68 215.835 13 209.933 13ZM209.933 30.64C205.959 30.64 202.586 27.52 202.586 23.44C202.586 19.36 205.959 16.36 209.933 16.36C213.908 16.36 217.28 19.36 217.28 23.44C217.28 27.52 213.908 30.64 209.933 30.64ZM113.699 13H117.553V16.84H113.699V13ZM125.382 13H121.889V34H122.612H125.382H134.415V30.28H125.382V13ZM141.883 23.44C141.883 17.68 146.7 13 152.602 13C158.504 13 163.322 17.68 163.322 23.44C163.322 29.2 158.504 33.88 152.602 33.88C146.58 33.88 141.883 29.2 141.883 23.44ZM145.255 23.44C145.255 27.52 148.628 30.64 152.602 30.64C156.577 30.64 159.949 27.52 159.949 23.44C159.949 19.36 156.577 16.36 152.602 16.36C148.628 16.36 145.255 19.36 145.255 23.44ZM224.373 13C222.374 13 220.746 14.5944 220.746 16.5972C220.746 18.5804 222.374 20.1944 224.373 20.1944C226.393 20.1944 228 18.5804 228 16.5972C228 14.5944 226.393 13 224.373 13ZM224.373 19.5695C222.706 19.5695 221.376 18.231 221.376 16.5972C221.376 14.929 222.711 13.625 224.373 13.625C226.04 13.625 227.37 14.929 227.37 16.5972C227.37 18.231 226.04 19.5695 224.373 19.5695ZM224.641 14.8699H223.168V18.3097H223.669V17.1434H224.443L225.132 18.2998H225.693L224.949 17.0647C225.167 17.0056 225.346 16.8777 225.48 16.6808C225.614 16.484 225.683 16.2576 225.683 16.0116C225.683 15.8738 225.658 15.736 225.609 15.5982C225.559 15.4604 225.49 15.3374 225.395 15.2291C225.301 15.1209 225.192 15.0323 225.063 14.9683C224.934 14.9044 224.795 14.8699 224.641 14.8699ZM225.048 16.4988C224.949 16.6267 224.805 16.6907 224.621 16.6907H223.669V15.3325H224.596C224.765 15.3325 224.909 15.3965 225.023 15.5195C225.137 15.6425 225.197 15.8049 225.197 16.0067C225.197 16.2084 225.147 16.3708 225.048 16.4988Z" fill="white"/>
</svg>
